<?xml version="1.0" encoding="UTF-8" standalone="no"?>
<!-- Created with Inkscape (http://www.inkscape.org/) -->

<svg
   xmlns:dc="http://purl.org/dc/elements/1.1/"
   xmlns:cc="http://creativecommons.org/ns#"
   xmlns:rdf="http://www.w3.org/1999/02/22-rdf-syntax-ns#"
   xmlns:svg="http://www.w3.org/2000/svg"
   xmlns="http://www.w3.org/2000/svg"
   xmlns:sodipodi="http://sodipodi.sourceforge.net/DTD/sodipodi-0.dtd"
   xmlns:inkscape="http://www.inkscape.org/namespaces/inkscape"
   width="170.24989"
   height="33.8587"
   viewBox="0 0 45.045284 8.9584481"
   version="1.1"
   id="svg16824"
   inkscape:version="0.92.0 r15299"
   sodipodi:docname="holiday.svg">
  <defs
     id="defs16818">
    <clipPath
       id="clipPath16067"
       clipPathUnits="userSpaceOnUse">
      <path
         inkscape:connector-curvature="0"
         id="path16065"
         d="m 244.857,729.72 h 126.976 v 25.537 H 244.857 Z" />
    </clipPath>
  </defs>
  <sodipodi:namedview
     id="base"
     pagecolor="#ffffff"
     bordercolor="#666666"
     borderopacity="1.0"
     inkscape:pageopacity="0.0"
     inkscape:pageshadow="2"
     inkscape:zoom="4.4850907"
     inkscape:cx="84.225628"
     inkscape:cy="17.221813"
     inkscape:document-units="mm"
     inkscape:current-layer="layer1"
     showgrid="false"
     fit-margin-top="0"
     fit-margin-left="0"
     fit-margin-right="0"
     fit-margin-bottom="0"
     units="px"
     inkscape:window-width="1280"
     inkscape:window-height="744"
     inkscape:window-x="-4"
     inkscape:window-y="-4"
     inkscape:window-maximized="1" />
  <metadata
     id="metadata16821">
    <rdf:RDF>
      <cc:Work
         rdf:about="">
        <dc:format>image/svg+xml</dc:format>
        <dc:type
           rdf:resource="http://purl.org/dc/dcmitype/StillImage" />
        <dc:title></dc:title>
      </cc:Work>
    </rdf:RDF>
  </metadata>
  <g
     inkscape:label="Layer 1"
     inkscape:groupmode="layer"
     id="layer1"
     transform="translate(45.719221,-144.43149)">
    <g
       id="g16983"
       transform="translate(0.13229133,-0.13228863)">
      <path
         d="m -27.925033,151.85537 h -1.789994 v -2.68464 h -1.867959 v 2.68464 h -1.793169 l 0.0021,-6.83084 h 1.789994 l 0.0032,2.51178 1.862314,-10e-4 v -2.51037 h 1.785408 z"
         style="fill:#ee2722;fill-opacity:1;fill-rule:nonzero;stroke:none;stroke-width:0.35277778"
         id="path16055"
         inkscape:connector-curvature="0" />
      <path
         d="m -20.037695,151.85537 h -1.620661 l 0.0025,-6.83084 h 1.61537 z"
         style="fill:#ee2722;fill-opacity:1;fill-rule:nonzero;stroke:none;stroke-width:0.35277778"
         id="path16059"
         inkscape:connector-curvature="0" />
      <path
         d="m -0.98871956,146.48426 c 0,0 -0.72672224,1.97908 -1.37124724,3.58422 -0.6441722,1.60514 -0.9719027,2.27542 -1.5483416,2.83775 -0.5764389,0.56268 -1.9060583,0.49882 -2.223911,0.45861 v -1.45133 c 0.6843888,-0.0388 1.3356166,0.01 1.6989777,-0.70026 0.2501194,-0.49601 -0.064558,-0.90206 -0.2921,-1.4598 -0.087489,-0.21449 -0.2846917,-0.57926 -0.2846917,-0.57926 l -1.2918722,-2.63172 h 1.6577028 l 1.1673416,2.24155 0.8537222,-2.29976 z"
         style="fill:#ee2722;fill-opacity:1;fill-rule:nonzero;stroke:none;stroke-width:0.35277778"
         id="path16071"
         inkscape:connector-curvature="0" />
      <path
         d="m -17.734093,146.60096 0.0021,5.25427 h -1.588559 v -5.25427 z"
         style="fill:#ee2722;fill-opacity:1;fill-rule:nonzero;stroke:none;stroke-width:0.35277778"
         id="path16075"
         inkscape:connector-curvature="0" />
      <path
         d="m -13.89834,150.35783 c -0.700264,0.0582 -1.900414,0.10407 -1.895475,-1.15887 0.0053,-1.1938 1.311628,-1.08021 1.895475,-1.08021 z m 1.756833,-5.33329 h -1.750483 l 7.06e-4,1.57656 c 0,0 -2.516364,-0.24448 -3.210984,1.28446 -0.408516,0.75883 -0.349955,1.75084 -0.05821,2.51002 0.817033,2.10185 5.020733,1.40123 5.020733,1.40123 z"
         style="fill:#ee2722;fill-opacity:1;fill-rule:nonzero;stroke:none;stroke-width:0.35277778"
         id="path16079"
         inkscape:connector-curvature="0" />
      <path
         d="m -24.809862,150.38599 c -0.675217,0 -1.223081,-0.54751 -1.223081,-1.22308 0,-0.67592 0.547864,-1.22308 1.223081,-1.22308 0.675569,0 1.223433,0.54716 1.223433,1.22308 0,0.67557 -0.547864,1.22308 -1.223433,1.22308 m 0.04339,-4.02943 c -1.561748,0 -2.827867,1.26612 -2.827867,2.82787 0,1.56175 1.266119,2.82751 2.827867,2.82751 1.561394,0 2.827866,-1.26576 2.827866,-2.82751 0,-1.56175 -1.266472,-2.82787 -2.827866,-2.82787"
         style="fill:#ee2722;fill-opacity:1;fill-rule:nonzero;stroke:none;stroke-width:0.35277778"
         id="path16083"
         inkscape:connector-curvature="0" />
      <path
         d="m -1.596097,150.60697 c -0.3175,0 -0.5757333,0.25823 -0.5757333,0.57573 0,0.31786 0.2582333,0.57609 0.5757333,0.57609 0.3175,0 0.5760861,-0.25823 0.5760861,-0.57609 0,-0.3175 -0.2585861,-0.57573 -0.5760861,-0.57573 m 0,1.23331 c -0.3626555,0 -0.657225,-0.29492 -0.657225,-0.65758 0,-0.3623 0.2945695,-0.65722 0.657225,-0.65722 0.3626555,0 0.65757776,0.29492 0.65757776,0.65722 0,0.36266 -0.29492226,0.65758 -0.65757776,0.65758"
         style="fill:#ee2722;fill-opacity:1;fill-rule:nonzero;stroke:none;stroke-width:0.35277778"
         id="path16087"
         inkscape:connector-curvature="0" />
      <path
         d="m -1.7283534,151.13917 h 0.1756833 c 0.071261,0 0.1104195,-0.0279 0.1104195,-0.0949 0,-0.0639 -0.039158,-0.0921 -0.1104195,-0.0921 h -0.1756833 z m -0.1605139,-0.30021 h 0.3933472 c 0.1305278,0 0.2130778,0.0826 0.2130778,0.18309 0,0.0783 -0.034572,0.13652 -0.1150056,0.16651 v 0.002 c 0.078317,0.0187 0.1008945,0.0882 0.1061862,0.15522 0.00317,0.042 0.00176,0.11995 0.030339,0.15734 H -1.421084 c -0.019403,-0.042 -0.017286,-0.10618 -0.0254,-0.1591 -0.011289,-0.0699 -0.040922,-0.10054 -0.1217083,-0.10054 h -0.1601611 v 0.25964 h -0.1605139 z"
         style="fill:#ee2722;fill-opacity:1;fill-rule:nonzero;stroke:none;stroke-width:0.35277778"
         id="path16091"
         inkscape:connector-curvature="0" />
      <path
         d="m -8.1768841,150.27077 -0.3372555,0.0201 -0.4028723,-0.0201 c -0.6399388,0 -1.2375441,-0.51894 -1.2375441,-1.15923 0,-0.63994 0.5976053,-1.15887 1.2375441,-1.15887 h 0.4885972 l 0.2515306,0.018 z m -2.3283329,-3.3782 c -0.758825,0.46708 -1.225903,1.22626 -1.225903,2.1022 -0.05856,0.81704 0.174978,1.51765 0.700264,2.04294 1.1094858,1.22661 4.5233163,0.77364 4.5233163,0.77364 v -5.26874 c 0,0 -2.8881916,-0.3503 -3.9976773,0.34996"
         style="fill:#ee2722;fill-opacity:1;fill-rule:nonzero;stroke:none;stroke-width:0.35277778"
         id="path16095"
         inkscape:connector-curvature="0" />
      <path
         d="m -45.474737,145.23099 c 0.268817,-0.0279 3.086805,-0.77082 5.986639,-0.18838 2.62255,0.52705 4.155016,1.88101 4.961466,3.43464 0,0 -0.865011,1.92088 -4.109508,2.90125 -2.248958,0.6798 -4.421011,0.85372 -6.951839,0.28963 l 1.456973,-1.67852 c 0,0 -1.446742,-1.61361 -1.46297,-1.69721 -0.01623,-0.0833 1.523295,-1.1998 1.604433,-1.21638 z"
         style="fill:#ffffff;fill-opacity:1;fill-rule:nonzero;stroke:none;stroke-width:0.35277778"
         id="path16099"
         inkscape:connector-curvature="0" />
      <path
         d="m -41.851427,144.69607 v 0.12418 -0.12418 c -1.579739,0 -2.867378,0.25929 -3.417358,0.37006 -0.105834,0.0215 -0.189442,0.0381 -0.218722,0.0413 -0.04516,0.005 -0.08431,0.0339 -0.101953,0.0759 -0.01764,0.042 -0.01058,0.0903 0.01799,0.12558 l 1.395236,1.73355 c -0.04304,0.0282 -0.09878,0.0663 -0.17145,0.11713 -0.160866,0.11183 -0.363008,0.25752 -0.554919,0.40005 -0.151342,0.11218 -0.367242,0.27516 -0.537633,0.41381 -0.248709,0.20249 -0.292453,0.25717 -0.275872,0.3429 0.0092,0.0476 0.01658,0.085 0.766233,0.93803 0.263878,0.29986 0.528814,0.59725 0.653344,0.73625 l -1.385358,1.59597 c -0.02857,0.0332 -0.03775,0.079 -0.02399,0.12065 0.01376,0.0413 0.04833,0.0727 0.09102,0.0822 1.028347,0.22931 2.002719,0.34079 2.97815,0.34079 1.3081,0 2.628547,-0.20708 4.036483,-0.63253 0.938389,-0.28364 2.276122,-0.83468 3.322108,-1.84821 0.631472,-0.61207 0.855486,-1.10066 0.864659,-1.12113 0.01552,-0.0346 0.01446,-0.0744 -0.0028,-0.1083 -0.441325,-0.85055 -1.059039,-1.57198 -1.836208,-2.14489 -0.876653,-0.64664 -1.957211,-1.10207 -3.211336,-1.35431 -0.742244,-0.14923 -1.545872,-0.22472 -2.3876,-0.22472 m -3.53e-4,0.12418 c 0.74542,0 1.551164,0.0593 2.363611,0.2226 2.622903,0.52705 4.155017,1.88066 4.961467,3.43429 0,0 -0.865011,1.92088 -4.109508,2.9016 -1.329973,0.40181 -2.633839,0.62689 -4.0005,0.62689 -0.943681,0 -1.917347,-0.1069 -2.951339,-0.33761 l 1.456972,-1.67852 c 0,0 -1.446742,-1.61361 -1.462969,-1.69686 -0.01623,-0.0833 1.523294,-1.1998 1.604433,-1.21673 l -1.485194,-1.84503 c 0.193675,-0.0198 1.708149,-0.41063 3.623027,-0.41063"
         style="fill:#aeacac;fill-opacity:1;fill-rule:nonzero;stroke:none;stroke-width:0.35277778"
         id="path16103"
         inkscape:connector-curvature="0" />
      <path
         d="m -34.89532,148.3724 c -1.647119,-1.81751 -4.15925,-2.36467 -6.631164,-1.88489 -0.719314,0.13229 -1.40088,0.37853 -2.0447,0.66252 l -1.372305,-1.7272 0.145697,-0.0406 c 3.1242,-0.58703 6.603647,-0.48507 8.932686,1.71097 0.39758,0.37888 0.70485,0.84384 0.969786,1.27917"
         style="fill:#ee2722;fill-opacity:1;fill-rule:nonzero;stroke:none;stroke-width:0.35277778"
         id="path16107"
         inkscape:connector-curvature="0" />
      <path
         d="m -40.068488,148.47545 -1.559631,1.6002 v -3.22862 h 1.557162 z"
         style="fill:#ee2722;fill-opacity:1;fill-rule:nonzero;stroke:none;stroke-width:0.35277778"
         id="path16111"
         inkscape:connector-curvature="0" />
      <path
         d="m -38.456717,147.98791 c 0.0042,0.0247 0.0254,0.0639 0.03351,0.10054 0.01658,0.0773 0.02187,0.15628 0.02187,0.15628 l 0.0014,1.82139 h -1.647119 l -0.0025,-1.59067 c 0.378531,-0.41663 1.100667,-1.26365 1.592792,-0.48754"
         style="fill:#1e54a8;fill-opacity:1;fill-rule:nonzero;stroke:none;stroke-width:0.35277778"
         id="path16115"
         inkscape:connector-curvature="0" />
      <path
         d="m -42.800258,151.69507 c -0.299156,0.006 -0.426156,-0.0141 -0.752122,-0.0198 l -1.495778,-0.20849 1.325386,-1.57127 c 1.590675,0.75741 3.748969,0.92781 5.585531,0.51118 1.192741,-0.4124 2.390069,-0.90241 3.279774,-1.86832 -1.807633,2.39325 -4.950177,3.09281 -7.942791,3.15666"
         style="fill:#1e54a8;fill-opacity:1;fill-rule:nonzero;stroke:none;stroke-width:0.35277778"
         id="path16119"
         inkscape:connector-curvature="0" />
    </g>
  </g>
</svg>
